<?xml version="1.0" standalone="no"?>
<!DOCTYPE svg PUBLIC "-//W3C//DTD SVG 20010904//EN"
 "http://www.w3.org/TR/2001/REC-SVG-20010904/DTD/svg10.dtd">
<svg version="1.0" xmlns="http://www.w3.org/2000/svg"
 width="640.000000pt" height="640.000000pt" viewBox="0 0 640.000000 640.000000"
 preserveAspectRatio="xMidYMid meet">
<metadata>
Created by potrace 1.14, written by Peter Selinger 2001-2017
</metadata>
<g transform="translate(0.000000,640.000000) scale(0.100000,-0.100000)"
fill="#000000" stroke="none">
<path d="M3360 6340 c0 -3 -18 -88 -40 -190 -22 -102 -42 -194 -44 -205 -45
-227 -59 -291 -73 -348 -22 -84 -19 -87 95 -87 48 0 120 -9 170 -20 48 -11
137 -32 197 -46 103 -25 261 -81 252 -90 -2 -3 -31 2 -63 11 -32 8 -86 20
-119 26 -230 39 -308 51 -366 56 -73 6 -72 7 -83 -61 -3 -16 -10 -52 -15 -80
-6 -28 -18 -87 -26 -130 -17 -90 -54 -160 -193 -369 -54 -81 -104 -144 -139
-174 -44 -37 -63 -65 -97 -137 -86 -180 -160 -455 -159 -585 1 -69 79 -235
152 -321 l29 -35 -8 45 c-14 77 -22 191 -22 300 0 200 28 315 95 396 13 16 47
68 76 117 29 48 57 87 62 87 14 0 -25 -94 -74 -179 -75 -131 -97 -194 -116
-331 -9 -68 -7 -260 4 -320 21 -127 29 -161 51 -238 45 -156 116 -282 159
-282 8 0 43 -25 77 -56 35 -31 81 -68 102 -82 93 -59 332 -167 391 -177 16 -3
42 -7 56 -9 69 -11 303 207 379 353 17 33 22 119 20 371 -2 252 -6 266 -62
198 -45 -55 -153 -220 -184 -280 l-23 -46 22 -14 c12 -8 48 -27 80 -42 31 -14
57 -29 57 -32 0 -3 -36 -2 -80 2 -79 6 -80 6 -115 -24 -43 -39 -98 -54 -183
-51 -76 2 -182 36 -216 68 -13 12 -28 39 -35 61 -8 29 -23 46 -59 69 -78 50
-77 50 -43 80 44 38 82 140 84 227 2 82 -5 94 -75 130 -33 17 -48 30 -48 44 0
28 20 33 62 16 52 -22 114 -35 128 -26 9 5 9 13 2 27 -9 16 3 39 72 141 83
122 116 165 123 159 2 -2 -23 -60 -56 -128 -62 -130 -108 -259 -161 -446 -28
-100 -30 -117 -19 -155 17 -67 58 -143 96 -180 l34 -33 110 1 c80 1 114 5 123
15 7 8 30 61 50 119 61 167 137 318 244 482 107 164 135 215 207 378 63 140
95 203 102 197 2 -3 -8 -33 -23 -67 -23 -52 -25 -63 -13 -71 43 -27 83 14 124
126 28 75 34 127 22 175 -7 28 -95 262 -125 330 -55 127 -68 148 -126 202 -40
38 -55 58 -44 58 10 0 42 9 73 21 49 18 55 23 55 50 0 56 -106 138 -197 154
-51 8 -67 25 -24 25 37 0 161 -44 219 -77 24 -14 45 -23 46 -21 8 9 53 157 82
268 23 89 31 140 27 176 -3 40 -1 53 11 57 8 3 27 25 42 49 27 43 194 373 194
383 0 4 -295 5 -655 3 -360 -2 -655 -5 -655 -8z"/>
<path d="M4260 4289 c-19 -23 -39 -49 -44 -58 -8 -14 -7 -14 7 -2 10 8 20 11
23 8 10 -9 -51 -132 -99 -201 -62 -89 -117 -182 -117 -197 1 -37 159 204 221
337 74 155 77 194 9 113z"/>
<path d="M1615 3333 c-315 -25 -692 -99 -780 -153 -16 -10 -78 -47 -137 -82
-128 -78 -262 -134 -359 -149 -39 -6 -73 -8 -76 -6 -3 3 -8 33 -12 67 -4 36
-14 65 -22 71 -21 13 -132 16 -197 4 l-32 -6 1 -614 c1 -451 4 -615 13 -618
18 -6 227 -1 274 7 50 9 60 24 69 106 3 33 9 63 13 65 3 2 135 -38 292 -90
157 -52 305 -99 329 -104 48 -10 290 -47 379 -57 30 -3 82 -9 115 -14 58 -8
179 -6 280 5 28 2 100 10 160 15 116 12 132 13 260 29 44 6 105 13 135 16 30
3 62 8 70 10 8 2 38 6 65 10 28 3 61 7 75 10 14 3 39 7 55 9 80 13 104 18 155
31 102 25 106 29 120 84 7 28 10 57 7 64 -4 11 -61 13 -289 10 -155 -2 -355
-4 -443 -5 -208 -2 -328 13 -302 38 9 9 255 14 892 17 577 3 573 3 612 68 28
45 36 90 20 110 -29 38 -46 39 -539 45 -266 3 -517 7 -558 9 -41 2 -139 4
-218 6 -78 1 -145 5 -147 10 -7 10 -77 8 650 14 651 4 735 7 810 26 51 13 84
46 80 81 -1 13 -3 32 -4 43 -3 50 -148 87 -381 99 -232 12 -344 16 -640 22
-601 12 -630 13 -520 23 77 7 875 5 940 -2 25 -3 104 -8 175 -12 294 -17 374
-10 417 33 19 18 20 24 8 51 -34 84 -218 156 -445 176 -38 3 -83 8 -100 10
-16 3 -50 7 -75 10 -25 2 -63 7 -85 9 -186 21 -240 27 -305 31 -266 16 -330
18 -465 19 -82 0 -199 -3 -259 -7 -61 -4 -108 -6 -105 -3 2 2 68 20 146 39
291 73 373 128 360 240 -10 83 -8 82 -245 82 -114 0 -220 -1 -237 -2z"/>
<path d="M3703 2535 c-69 -30 -67 -84 7 -196 86 -129 142 -180 423 -383 81
-59 198 -139 260 -177 177 -111 331 -239 363 -301 14 -27 14 -28 -8 -28 -30 1
-105 26 -243 83 -60 25 -147 55 -193 67 -46 11 -197 56 -335 99 -427 134 -417
132 -489 95 -86 -44 -143 -114 -133 -165 12 -60 72 -102 245 -170 58 -23 195
-83 305 -134 110 -51 234 -103 275 -114 93 -27 180 -61 180 -70 0 -4 -28 -23
-62 -42 -67 -37 -89 -66 -110 -143 -12 -45 -12 -49 9 -66 32 -25 169 -68 239
-74 70 -6 159 -13 269 -21 44 -4 127 -11 185 -16 58 -5 111 -9 118 -9 6 0 39
-37 73 -83 116 -157 188 -236 254 -281 22 -14 35 -26 29 -26 -38 0 -290 218
-381 330 -25 31 -33 35 -78 36 -55 0 -257 13 -308 19 -51 6 -236 17 -302 19
-58 1 -60 0 -57 -24 4 -37 66 -157 110 -215 l38 -50 65 1 c69 0 81 1 359 40
186 26 207 28 269 25 48 -2 36 -8 -29 -16 -30 -3 -71 -8 -90 -10 -19 -2 -64
-7 -100 -10 -127 -13 -356 -45 -391 -55 l-37 -10 40 -93 c52 -123 69 -155 87
-162 8 -3 138 26 290 66 152 39 285 73 296 75 102 22 179 34 188 31 21 -8 -37
-25 -330 -95 -159 -39 -306 -77 -328 -86 -34 -15 -37 -18 -24 -31 8 -9 24 -17
35 -19 36 -7 99 -16 149 -21 28 -4 66 -8 85 -10 19 -2 76 -7 125 -11 50 -3
107 -8 127 -9 310 -24 646 -27 696 -6 17 7 32 17 32 22 0 13 149 85 236 115
94 31 91 34 111 -96 l8 -55 50 -12 c28 -7 60 -15 73 -18 l22 -5 -1 597 c0 358
-4 604 -10 615 -12 23 -61 48 -93 48 -26 0 -62 15 -226 93 -292 139 -437 200
-580 245 -130 41 -145 45 -222 48 -51 2 -73 8 -89 23 -33 30 -229 168 -352
247 -59 38 -185 120 -280 182 -174 114 -386 239 -598 351 -125 66 -178 76
-246 46z"/>
</g>
</svg>
